<svg viewBox="0 0 160 200" width="115" height="144" style="overflow:visible;"><defs><radialGradient id="o9" cx="28%" cy="22%" r="75%"><stop offset="0%" stop-color="#C8D0DA"></stop><stop offset="42%" stop-color="#6B7685"></stop><stop offset="100%" stop-color="#1E242C"></stop></radialGradient><radialGradient id="o9v" cx="32%" cy="24%" r="72%"><stop offset="0%" stop-color="#2C2C2C"></stop><stop offset="100%" stop-color="#040404"></stop></radialGradient><radialGradient id="o9e" cx="42%" cy="35%" r="60%"><stop offset="0%" stop-color="#FFFFFF"></stop><stop offset="55%" stop-color="#C8D8EC"></stop><stop offset="100%" stop-color="#708090"></stop></radialGradient><filter id="o9s" x="-30%" y="-15%" width="160%" height="145%"><feDropShadow dx="0" dy="6" stdDeviation="9" flood-color="#3A4A5A" flood-opacity="0.35"></feDropShadow></filter><radialGradient id="o9a" cx="30%" cy="28%" r="70%"><stop offset="0%" stop-color="#9AA5B0"></stop><stop offset="100%" stop-color="#1E242C"></stop></radialGradient></defs><ellipse cx="80" cy="197" rx="46" ry="5" fill="black" fill-opacity="0.1"></ellipse><rect x="77" y="12" width="6" height="18" rx="3" fill="#5A6674"></rect><circle cx="80" cy="10" r="7" fill="url(#o9)"></circle><circle cx="77" cy="7" r="2.5" fill="white" fill-opacity="0.25"></circle><rect x="22" y="26" width="116" height="96" rx="40" fill="url(#o9)" filter="url(#o9s)"></rect><ellipse cx="52" cy="40" rx="30" ry="13" fill="white" fill-opacity="0.12" transform="rotate(-14 52 40)"></ellipse><rect x="35" y="42" width="90" height="64" rx="26" fill="url(#o9v)"></rect><rect x="35" y="42" width="90" height="64" rx="26" fill="none" stroke="#222" stroke-width="1.5"></rect><ellipse cx="64" cy="74" rx="11" ry="15" fill="url(#o9e)" stroke="rgba(255,255,255,0.25)" stroke-width="1.5"></ellipse><ellipse cx="96" cy="74" rx="11" ry="15" fill="url(#o9e)" stroke="rgba(255,255,255,0.25)" stroke-width="1.5"></ellipse><rect x="70" y="119" width="20" height="13" rx="5" fill="#5A6674"></rect><ellipse cx="17" cy="150" rx="9" ry="12" fill="url(#o9a)" transform="rotate(-12 17 150)"></ellipse><ellipse cx="14" cy="165" rx="12" ry="15" fill="url(#o9a)" transform="rotate(-8 14 165)"></ellipse><ellipse cx="143" cy="150" rx="9" ry="12" fill="url(#o9a)" transform="rotate(12 143 150)"></ellipse><ellipse cx="146" cy="165" rx="12" ry="15" fill="url(#o9a)" transform="rotate(8 146 165)"></ellipse><rect x="34" y="130" width="92" height="66" rx="26" fill="url(#o9)" filter="url(#o9s)"></rect><circle cx="80" cy="157" r="12" fill="#fff" stroke="#6B7685" stroke-width="1.5"></circle><path d="M80 150v14M73 157h14" stroke="#6B7685" stroke-width="3" fill="none" stroke-linecap="round"></path></svg>